<?xml version="1.0" standalone="no"?><svg xmlns="http://www.w3.org/2000/svg" viewBox="0 0 1440 320"><path fill="#a2d9ff" fill-opacity="1" d="M0,128L24,144C48,160,96,192,144,208C192,224,240,224,288,197.3C336,171,384,117,432,117.3C480,117,528,171,576,202.7C624,235,672,245,720,218.7C768,192,816,128,864,90.7C912,53,960,43,1008,58.7C1056,75,1104,117,1152,165.3C1200,213,1248,267,1296,245.3C1344,224,1392,128,1416,80L1440,32L1440,320L1416,320C1392,320,1344,320,1296,320C1248,320,1200,320,1152,320C1104,320,1056,320,1008,320C960,320,912,320,864,320C816,320,768,320,720,320C672,320,624,320,576,320C528,320,480,320,432,320C384,320,336,320,288,320C240,320,192,320,144,320C96,320,48,320,24,320L0,320Z"></path></svg>